# xmcd
#
# Track frame offsets:
#	150
#	18295
#	37355
#	60983
#	80240
#	95615
#	117540
#	144750
#	163525
#
# Disc length: 2513 seconds
#
# Revision: 0
# Processed by: cddbd v1.4PL0 Copyright (c) Steve Scherf et al.
# Submitted via: EasyCDDAExtractor 4.5.2.1
#
DISCID=7509cf09
DTITLE=Little Milton  - Too Much Pain
DYEAR=1900
DGENRE=Blues
TTITLE0=Bad Dream
TTITLE1=The Cradle Is Robbin' Me
TTITLE2=Still In Love With You
TTITLE3=Runaway
TTITLE4=The Woman I Love
TTITLE5=Your Wife Is Cheating On Us
TTITLE6=Too Much Pain
TTITLE7=Gonna' Start A Rumor
TTITLE8=Count The Days
EXTD=
EXTT0=
EXTT1=
EXTT2=
EXTT3=
EXTT4=
EXTT5=
EXTT6=
EXTT7=
EXTT8=
PLAYORDER=
